<?xml version="1.0" encoding="utf-8"?>
<!-- Generator: Adobe Illustrator 21.0.0, SVG Export Plug-In . SVG Version: 6.00 Build 0)  -->
<svg version="1.1" id="Layer_1" xmlns="http://www.w3.org/2000/svg" xmlns:xlink="http://www.w3.org/1999/xlink" x="0px" y="0px"
	 viewBox="0 0 572 572" style="enable-background:new 0 0 572 572;" xml:space="preserve">
<style type="text/css">
	.st0{fill:#FFFFFF;}
</style>
<rect y="0" width="572" height="572"/>
<g>
	<path class="st0" d="M112.3,270.4h-30L77.7,286h-16l26.9-79.8h17l27.2,79.8h-15.9L112.3,270.4z M108.3,257.4l-11-36.7l-11.1,36.7
		H108.3z"/>
	<path class="st0" d="M195.4,206.2L172.7,286h-20.1l-23.5-79.8h15.7l17.9,62.9l17.3-62.9L195.4,206.2L195.4,206.2z"/>
	<path class="st0" d="M225.5,219.6v18.8h38.4v12.9h-38.4v21.4h44.9V286h-59.5v-79.8h56.7v13.3h-42.1V219.6z"/>
	<path class="st0" d="M335.6,206.2h14.7V286h-13l-34.9-55.9l0.9,55.9h-14.6v-79.8h13.4l35.3,56.4L335.6,206.2z"/>
	<path class="st0" d="M432.8,206.2v50.3c-0.1,9-0.1,16.5-8.6,23.7c-8.1,7.1-18.6,7.8-24.1,7.8c-4.9,0-9.6-0.6-14.1-2.1
		c-9.5-3.3-14.6-10.2-16.4-16.2c-1-3.5-1-6-1.1-15.9v-47.6h14.9v49c0,3.4-0.1,6.7,1,9.7c3,7.7,11.4,8.6,16.2,8.6
		c2.4,0,8.4-0.1,12.8-4c4.4-4,4.4-8.5,4.4-15.1v-48.2H432.8z"/>
	<path class="st0" d="M465.4,219.6v18.8h38.4v12.9h-38.4v21.4h44.9V286h-59.5v-79.8h56.7v13.3h-42.1V219.6z"/>
	<path class="st0" d="M228.6,339.6c0.7-3.6,2-10.7,8.4-16c4.5-3.8,11.3-6.1,17.9-6.1c8.1,0,24.3,4,24.3,20.2
		c0,7.2-3.4,10.8-4.2,11.8c-2.8,3.2-6,4-8.5,4.6c6.1,1.2,14.5,6.1,14.5,18.3c0,13.2-9.7,23.6-27.2,23.6c-7.7,0-14.9-2.3-19.2-6.3
		c-3.5-3.2-7.5-9.5-7.5-19.7h15c-0.1,0.8-0.1,1.5-0.1,2.4c0,6.4,4.4,11.3,12,11.3c8.6,0,11.9-6.2,11.9-12.1c0-4.1-1.7-7.7-5.2-9.6
		c-1.9-1.1-4.5-1.6-8.1-1.6l-3.7,0.1v-11.9c4.7,0.1,5.3,0.1,6.2,0.1c1.7-0.1,9.2-0.5,9.2-9c0-5.2-3.4-9.7-9.7-9.7
		c-10.1,0-10.7,10.2-10.8,12.8L228.6,339.6z"/>
	<path class="st0" d="M346.5,383.2V395h-51.9v-11c9.7-6.7,19.3-15.8,23.8-20.5c4.2-4.3,11.2-11.6,11.2-21.7
		c0-5.9-2.9-11.4-10.1-11.4c-11.2,0-10.8,12.2-10.7,17.6l-14.2-1.2c0-10.7,3.5-17.6,6.4-21.1c4.2-4.9,11.4-8.3,19.7-8.3
		c14.5,0,24.5,9.4,24.5,23.8c0,12.3-7.6,21.1-15.9,28.7c-1.7,1.5-11.9,10.1-16.2,13.2h33.4V383.2z"/>
</g>
<g>
	<path class="st0" d="M195.2,491v6.7H209v4.6h-13.7v7.6h16v4.8H190v-28.5h20.3v4.8H195.2z"/>
	<path class="st0" d="M221.6,506.3c0.7,1,2.8,4.3,8.8,4.3c1,0,2.1-0.1,3.1-0.5c2.1-0.9,2.4-2.3,2.4-3.3c0-1.8-1.3-2.5-2.1-2.8
		c-0.6-0.2-0.7-0.3-3.3-0.9l-3.4-0.7c-1.8-0.4-2.7-0.6-3.6-1c-1.3-0.5-4.8-2.3-4.8-7c0-5.4,4.6-8.9,11.3-8.9c6.1,0,9.4,3,11.5,5.8
		l-4.4,3.3c-1-1.4-2.8-4.2-7.4-4.2c-2.9,0-5.4,1.3-5.4,3.5c0,2.4,2.7,2.9,5.2,3.4l2.9,0.6c3.8,0.8,9.2,2.4,9.2,8.5
		c0,6.5-6.1,9.2-12.1,9.2c-1.6,0-3.3-0.2-5.1-0.6c-1.9-0.6-5.2-1.9-7.4-5.4L221.6,506.3z"/>
	<path class="st0" d="M268.6,491.1h-7.9v23.7h-5.3v-23.7h-7.7v-4.8h20.9V491.1z"/>
	<path class="st0" d="M277.5,509.2v5.5h-5.3v-5.5H277.5z"/>
	<path class="st0" d="M317.3,510.5v4.2h-18.5v-3.9c3.5-2.4,6.9-5.7,8.5-7.3c1.5-1.5,4-4.2,4-7.7c0-2.1-1.1-4.1-3.6-4.1
		c-4,0-3.9,4.4-3.8,6.3l-5.1-0.4c0-3.8,1.2-6.3,2.3-7.5c1.5-1.7,4.1-2.9,7-2.9c5.2,0,8.8,3.3,8.8,8.5c0,4.4-2.7,7.6-5.7,10.3
		c-0.6,0.5-4.2,3.6-5.8,4.7h11.9V510.5z"/>
	<path class="st0" d="M337.9,514.3c-1.3,0.6-2.7,0.9-4.1,0.9c-4.7,0-7-2.8-7.9-4.2c-1.7-2.7-2-6.5-2-9.6c0-2.8,0.2-7.3,2.4-10.4
		c1.5-2.1,4.2-3.8,7.7-3.8c2.4,0,5.4,0.8,7.5,4c2.1,3.1,2.3,7.3,2.3,10C343.8,505.9,343.1,511.9,337.9,514.3z M334,491.5
		c-4.4,0-4.8,5.2-4.8,9.8c0,4.4,0.4,9.3,4.8,9.3c3.8,0,4.7-3.8,4.7-9.5C338.6,494.9,337.3,491.5,334,491.5z"/>
	<path class="st0" d="M361.6,487.5v27.2h-5v-15.6c0-2.6,0-3.3-2.2-3.3H350v-3.1h0.5c2.5,0,6-0.1,7.1-5.2H361.6z"/>
	<path class="st0" d="M382,487.5v27.2h-5v-15.6c0-2.6,0-3.3-2.2-3.3h-4.4v-3.1h0.5c2.5,0,6-0.1,7.1-5.2H382z"/>
</g>
</svg>
